<?xml version="1.0" encoding="utf-8"?>
<!-- Generator: Adobe Illustrator 16.0.0, SVG Export Plug-In . SVG Version: 6.00 Build 0)  -->
<!DOCTYPE svg PUBLIC "-//W3C//DTD SVG 1.1//EN" "http://www.w3.org/Graphics/SVG/1.1/DTD/svg11.dtd">
<svg version="1.1" id="Layer_1" xmlns="http://www.w3.org/2000/svg" xmlns:xlink="http://www.w3.org/1999/xlink" x="0px" y="0px"
	 width="65.667px" height="68px" viewBox="0 0 65.667 68" enable-background="new 0 0 65.667 68" xml:space="preserve">
<g>
	<g>
		<path fill="#EF4567" d="M15.31,25.202h-1.206l-0.086,0.034l-3.05,2.784l-0.042,0.095v1.529c0,0.051,0.031,0.098,0.077,0.118
			c0.048,0.02,0.102,0.01,0.14-0.024l2.833-2.656v16.104l0.038,0.092l0.09,0.035h1.206l0.09-0.037l0.039-0.09V25.331L15.4,25.24
			L15.31,25.202z"/>
		<path fill="#EF4567" d="M28.293,29.945c-0.004-2.84-1.877-4.889-4.547-4.893c-2.648,0.004-4.543,2.052-4.549,4.893l0,8.626
			c0.005,2.839,1.9,4.887,4.548,4.893c2.67-0.006,4.543-2.055,4.548-4.893h0V29.945z M23.746,42.079
			c-2.023-0.006-3.076-1.566-3.086-3.633l0-8.375c0.01-2.067,1.063-3.628,3.086-3.633c2.021,0.005,3.076,1.566,3.087,3.633h0v8.375
			C26.821,40.513,25.767,42.073,23.746,42.079z"/>
		<path fill="#EF4567" d="M52.113,38.572v-8.626c-0.003-2.84-1.876-4.889-4.547-4.893c-2.648,0.004-4.544,2.052-4.549,4.893
			l0.001,8.626c0.004,2.839,1.9,4.887,4.548,4.893c2.67-0.006,4.543-2.055,4.548-4.893H52.113z M47.566,42.079
			c-2.022-0.006-3.076-1.566-3.087-3.633l0.001-8.375c0.01-2.067,1.064-3.628,3.086-3.633c2.021,0.005,3.077,1.566,3.086,3.633l0,0
			v8.375C50.643,40.513,49.588,42.073,47.566,42.079z"/>
		<path fill="#EF4567" d="M40.204,29.945c-0.005-2.84-1.877-4.889-4.548-4.893c-2.648,0.004-4.543,2.052-4.548,4.893l0,8.626
			c0.005,2.839,1.9,4.887,4.548,4.893c2.671-0.006,4.543-2.055,4.548-4.893l0,0V29.945z M35.656,42.079
			c-2.023-0.006-3.075-1.566-3.086-3.633l0-8.375c0.011-2.067,1.063-3.628,3.086-3.633c2.023,0.005,3.076,1.566,3.087,3.633h-0.001
			v8.375C38.731,40.513,37.679,42.073,35.656,42.079z"/>
	</g>
	<path fill="#EF4567" d="M57.673,20.091c-2.689-4.726-6.537-8.363-10.957-10.809C42.294,6.834,37.299,5.57,32.282,5.57
		c-7.004-0.002-14.069,2.473-19.614,7.661C6.601,18.906,3.62,26.647,3.622,34.35c0,4.323,0.936,8.642,2.793,12.599
		c1.858,3.955,4.642,7.548,8.326,10.397c5.203,4.026,11.386,5.931,17.504,5.929c5.144,0,10.249-1.34,14.736-3.893
		c4.485-2.551,8.353-6.324,10.984-11.178c2.29-4.225,3.487-8.993,3.487-13.789c0-0.634-0.021-1.269-0.063-1.902
		c-0.047-0.707-0.658-1.242-1.365-1.195c-0.707,0.047-1.242,0.658-1.194,1.365c0.039,0.577,0.057,1.154,0.057,1.731
		c0,4.368-1.095,8.724-3.178,12.566c-2.395,4.416-5.903,7.842-9.998,10.172c-4.092,2.33-8.769,3.557-13.466,3.556
		c-5.592-0.001-11.201-1.731-15.935-5.394c-3.352-2.594-5.878-5.854-7.573-9.459c-1.693-3.604-2.551-7.554-2.551-11.507
		c0.002-7.051,2.718-14.087,8.234-19.246c5.044-4.716,11.453-6.967,17.861-6.969c4.585,0,9.16,1.159,13.191,3.391
		c4.032,2.234,7.521,5.533,9.969,9.833c0.351,0.616,1.133,0.832,1.75,0.481C57.807,21.489,58.022,20.706,57.673,20.091z"/>
	<circle fill="#EF4567" cx="59.023" cy="26.535" r="1.583"/>
</g>
</svg>
