<?xml version="1.0" encoding="utf-8"?>
<!-- Generator: Adobe Illustrator 16.0.0, SVG Export Plug-In . SVG Version: 6.00 Build 0)  -->
<!DOCTYPE svg PUBLIC "-//W3C//DTD SVG 1.1//EN" "http://www.w3.org/Graphics/SVG/1.1/DTD/svg11.dtd">
<svg version="1.1" id="Layer_1" xmlns="http://www.w3.org/2000/svg" xmlns:xlink="http://www.w3.org/1999/xlink" x="0px" y="0px"
	 width="112.5px" height="68px" viewBox="0 0 112.5 68" enable-background="new 0 0 112.5 68" xml:space="preserve">
<g>
	<g>
		<path fill="#EF4567" d="M16.166,33.317c-2.799-0.871-4.799-1.157-4.799-3.779c0-2.699,3.05-2.754,5.28-2.754
			c1.782,0,3.422,0.22,4.876,0.474l0.262-2.071c-2.077-0.43-3.892-0.65-6.341-0.65c-3.924,0-6.734,1.157-6.734,5.255
			c0,4.032,3.039,4.759,6.1,5.685c3.039,0.914,4.766,1.354,4.766,3.845c0,3.074-3.367,3.074-5.652,3.074
			c-1.618,0-3.411-0.198-5.007-0.463l-0.262,2.104c2.055,0.452,4.11,0.649,6.198,0.649c4.242,0,7.434-1.189,7.434-5.52
			C22.288,35.542,20.079,34.54,16.166,33.317z M34.635,24.536c-2.766,0-5.018,0.331-7.236,0.683l0.24,2.115
			c2.077-0.297,4.252-0.562,6.504-0.562c4.221,0,5.303,1.322,5.303,4.528v0.87c-2.974,0.1-5.947,0.209-8.319,0.573
			c-3.477,0.528-4.897,2.677-4.897,6.081c0,4.254,2.372,5.861,7.587,5.861c3.104,0,5.838-0.43,8.134-1.575
			c0.065-1.079,0.109-2.203,0.109-3.349v-9.266C42.059,25.604,38.779,24.536,34.635,24.536z M39.445,38.539
			c0,0.926-0.021,2.149-0.076,3.085c-1.673,0.661-3.575,0.882-5.27,0.882c-3.662,0-5.236-0.728-5.236-3.746
			c0-2.71,0.973-3.603,3.191-4.055c2.045-0.419,5.16-0.484,7.391-0.528V38.539z M62.091,24.8h-3.203l-8.472,9.035V17.22h-2.635
			v27.203h2.635v-9.255l8.778,9.255h3.465l-9.686-10.037L62.091,24.8z M74.613,41.503L68.415,24.8h-2.832l6.855,17.981
			c0.48,1.278,1.125,1.905,2.143,1.905c0.983,0,1.585-0.627,2.076-1.905L83.61,24.8h-2.711L74.613,41.503z M103.371,35.233
			c0.032-0.584,0.055-1.311,0.055-1.861c0-5.365-1.782-8.836-8.374-8.836c-6.396,0-8.516,2.953-8.516,10.07
			c0,5.816,1.683,10.08,8.057,10.08c3.684,0,5.925-0.309,8.154-0.649l-0.24-2.159c-2,0.275-4.34,0.551-6.876,0.551
			c-4.909,0-6.11-2.061-6.438-6.082l4.613-0.188C96.527,36.05,101.141,35.608,103.371,35.233z M89.126,34.319
			c0-5.068,1.027-7.602,5.926-7.602c4.252,0,5.695,2.116,5.695,5.443c0,0.407-0.011,0.98-0.043,1.378
			c-1.793,0.23-4.723,0.462-6.429,0.539L89.126,34.319z"/>
	</g>
</g>
</svg>
